<svg width="72" height="24" viewBox="0 0 72 24" fill="none" xmlns="http://www.w3.org/2000/svg">
<path d="M11.5183 4.89098C11.3763 5.40409 10.5903 6.96528 8.29765 6.96528H6.23426L7.33692 2.88218H9.50947C11.5947 2.88218 11.6602 4.37786 11.5183 4.89098ZM10.4047 0.0109172H3.78878L0.0332031 13.9415H2.19484C3.47217 13.9415 4.42198 13.7886 4.7495 12.544L5.36088 10.1859H7.45701C14.7716 10.1859 15.3175 5.93904 15.5468 5.09841C15.6887 4.55254 16.2455 0.0109172 10.4047 0.0109172ZM52.7531 0.131008C51.9016 0.131008 51.0937 0.502198 50.5478 1.15724L45.5914 7.03078L43.8664 0.131008H39.5213L43.5607 15.2516L56.8035 0.131008H52.7531ZM68.6161 0C68.1466 0 67.7099 0.360273 67.5789 0.818802L64.4675 12.2384C64.4675 12.2493 64.4675 12.2493 64.4675 12.2602L64.0089 13.9415H68.2121L72.0004 0H68.6161ZM60.9193 6.95436C60.832 7.31463 60.5263 7.64215 60.1333 7.82775C58.9651 8.37362 57.6441 8.06793 57.3275 8.00243C57.1419 7.96967 56.6506 7.84958 56.4105 7.77316C56.4105 7.77316 57.0546 5.69886 59.4346 5.69886C59.8822 5.70978 61.1486 5.99363 60.9193 6.95436ZM63.6814 4.42153C62.7862 3.55906 61.3124 3.23154 59.8603 3.23154C58.6267 3.23154 57.393 3.43897 56.7052 3.70099C50.9409 5.92813 51.4867 10.8628 53.2117 12.5113C54.0851 13.3519 55.0021 14.0179 56.9017 14.1707C59.4564 14.3672 60.9412 13.9851 61.8582 13.6249C61.9128 13.4829 62.2731 12.0746 62.5023 11.3322C61.9019 11.6488 58.1791 12.6205 56.5961 11.5069C56.0393 11.1139 55.8973 10.4697 56.0611 9.96755C56.3668 10.0549 56.8253 10.1968 57.1638 10.2514C57.6114 10.3278 58.1463 10.3606 58.7468 10.3606C59.4455 10.3606 60.1333 10.2951 60.7774 10.1641C61.3451 10.044 61.9128 9.83654 62.5023 9.53086C63.0155 9.26884 63.5177 8.8649 63.8452 8.45004C64.26 7.926 64.5002 7.40197 64.5766 6.84519C64.7077 5.98271 64.3692 5.07657 63.6814 4.42153ZM19.4443 11.7471C19.0076 11.7471 17.7412 11.4632 17.9595 10.5025C18.0468 10.1422 18.3525 9.81471 18.7456 9.62911C19.9137 9.08325 21.2347 9.38893 21.5513 9.45444C21.7369 9.48719 21.9662 9.57453 22.2064 9.64003C22.2064 9.64003 21.8243 11.7471 19.4443 11.7471ZM21.9771 3.23154C20.7107 3.2097 18.7674 3.50447 17.9923 3.72282C17.9704 3.77741 17.3481 5.99363 17.3481 5.99363C17.3481 5.99363 21.2566 5.02199 22.4793 5.99363C23.0142 6.41941 22.8396 6.92161 22.6758 7.42381C22.3701 7.33647 22.0535 7.27096 21.7151 7.21638C21.2675 7.13995 20.7325 7.1072 20.1321 7.1072C19.4334 7.1072 18.7456 7.17271 18.1014 7.30372C17.5337 7.42381 16.966 7.63124 16.3765 7.93692C15.8634 8.19894 15.3612 8.60288 15.0337 9.01774C14.6188 9.54177 14.3786 10.0658 14.3022 10.6226C14.1712 11.4741 14.5096 12.3803 15.1974 13.0353C16.0926 13.8978 17.5665 14.2253 19.0185 14.2253C20.2522 14.2253 21.333 13.9851 22.0317 13.745C23.8112 13.1336 24.7938 13.9415 24.7938 13.9415L26.3768 7.80591C26.748 6.41941 26.5951 5.29492 25.8964 4.49795C25.1977 3.69007 23.8767 3.26429 21.9771 3.23154ZM38.9754 5.02199C38.6261 4.56346 37.5343 3.23154 34.9797 3.23154C33.5277 3.23154 32.7089 3.49356 31.77 3.76649C30.3507 4.17043 29.39 3.51539 29.39 3.51539L26.6934 13.9524H30.6673C30.6673 13.9524 31.901 9.06141 32.0757 8.39545C32.2394 7.78408 32.5669 6.474 34.281 6.474C35.1544 6.474 35.9513 6.84519 35.591 8.25353C35.5037 8.59196 34.0954 13.9524 34.0954 13.9524H38.0475L39.4558 8.59196C39.6414 7.90417 39.7069 7.24913 39.6305 6.64867C39.5431 6.02638 39.3248 5.48052 38.9754 5.02199Z" fill="white"/>
<path d="M11.5065 4.89098C11.3646 5.40409 10.5786 6.96528 8.28593 6.96528H6.22255L7.3252 2.88218H9.49775C11.583 2.88218 11.6485 4.37786 11.5065 4.89098ZM10.393 0.0109172H3.77706L0.0214844 13.9415H2.18312C3.46045 13.9415 4.41026 13.7886 4.73778 12.544L5.34916 10.1859H7.44529C14.7599 10.1859 15.3058 5.93904 15.5351 5.09841C15.677 4.55254 16.2338 0.0109172 10.393 0.0109172ZM52.7414 0.131008C51.8899 0.131008 51.082 0.502198 50.5361 1.15724L45.5796 7.0417L43.8547 0.141926H39.5096L43.549 15.2625L56.7918 0.131008H52.7414ZM68.6044 0C68.1349 0 67.6982 0.360273 67.5672 0.818802L64.4558 12.2384C64.4558 12.2493 64.4558 12.2493 64.4558 12.2602L63.9972 13.9415H68.2004L71.9996 0H68.6044ZM60.9076 6.95436C60.8203 7.31463 60.5146 7.64215 60.1216 7.82775C58.9534 8.37362 57.6324 8.06793 57.3158 8.00243C57.1302 7.96967 56.6389 7.84958 56.3987 7.77316C56.3987 7.77316 57.0429 5.69886 59.4228 5.69886C59.8705 5.70978 61.1369 5.99363 60.9076 6.95436ZM63.6697 4.42153C62.7745 3.55906 61.3006 3.23154 59.8486 3.23154C58.615 3.23154 57.3813 3.43897 56.6935 3.70099C50.9291 5.92813 51.475 10.8628 53.2 12.5113C54.0733 13.3519 54.9904 14.0179 56.89 14.1707C59.4447 14.3672 60.9294 13.9851 61.8465 13.6249C61.9011 13.4829 62.2614 12.0746 62.4906 11.3322C61.8902 11.6488 58.1674 12.6205 56.5843 11.5069C56.0275 11.1139 55.8856 10.4697 56.0494 9.96755C56.3551 10.0549 56.8136 10.1968 57.152 10.2514C57.5996 10.3278 58.1346 10.3606 58.7351 10.3606C59.4338 10.3606 60.1216 10.2951 60.7657 10.1641C61.3334 10.044 61.9011 9.83654 62.4906 9.53086C63.0037 9.26884 63.5059 8.8649 63.8335 8.45004C64.2483 7.926 64.4885 7.40197 64.5649 6.84519C64.6959 5.98271 64.3575 5.07657 63.6697 4.42153ZM19.4326 11.7471C18.9959 11.7471 17.7294 11.4632 17.9478 10.5025C18.0351 10.1422 18.3408 9.81471 18.7338 9.62911C19.902 9.08324 21.223 9.38893 21.5396 9.45443C21.7252 9.48719 21.9545 9.57453 22.1946 9.64003C22.1946 9.64003 21.8125 11.7471 19.4326 11.7471ZM21.9654 3.23154C20.699 3.2097 18.7557 3.50447 17.9805 3.72282C17.9587 3.77741 17.3364 5.99363 17.3364 5.99363C17.3364 5.99363 21.2448 5.02199 22.4676 5.99363C23.0025 6.41941 22.8279 6.92161 22.6641 7.42381C22.3584 7.33647 22.0418 7.27096 21.7034 7.21638C21.2558 7.13995 20.7208 7.1072 20.1203 7.1072C19.4216 7.1072 18.7338 7.17271 18.0897 7.30371C17.522 7.42381 16.9543 7.63124 16.3648 7.93692C15.8517 8.19894 15.3495 8.60288 15.0219 9.01774C14.6071 9.54177 14.3669 10.0658 14.2905 10.6226C14.1595 11.4741 14.4979 12.3803 15.1857 13.0353C16.0809 13.8978 17.5548 14.2253 19.0068 14.2253C20.2404 14.2253 21.3213 13.9851 22.02 13.745C23.7995 13.1336 24.7821 13.9415 24.7821 13.9415L26.3651 7.80591C26.7363 6.41941 26.5834 5.29492 25.8847 4.49795C25.186 3.69007 23.865 3.26429 21.9654 3.23154ZM38.9637 5.02199C38.6144 4.56346 37.5226 3.23154 34.968 3.23154C33.5159 3.23154 32.6971 3.49356 31.7583 3.76649C30.339 4.17043 29.3783 3.51539 29.3783 3.51539L26.6817 13.9524H30.6556C30.6556 13.9524 31.8893 9.06141 32.0639 8.39545C32.2277 7.78408 32.5552 6.47399 34.2692 6.47399C35.1426 6.47399 35.9396 6.84519 35.5793 8.25352C35.492 8.59196 34.0837 13.9524 34.0837 13.9524H38.0357L39.4441 8.59196C39.6297 7.90417 39.6952 7.24913 39.6188 6.64867C39.5314 6.02638 39.3131 5.48052 38.9637 5.02199Z" fill="white"/>
<path d="M68.9104 22.9374C69.0196 22.8392 69.0851 22.6973 69.096 22.5008C69.1069 22.4025 69.0741 22.3042 69.0086 22.2169C68.9431 22.1296 68.8449 22.0859 68.7139 22.0859C68.5719 22.0859 68.4519 22.1296 68.3427 22.2278C68.2335 22.3261 68.168 22.468 68.1571 22.6645C68.1462 22.7628 68.1789 22.861 68.2444 22.9484C68.3099 23.0357 68.4082 23.0794 68.5392 23.0794C68.6811 23.0794 68.8012 23.0248 68.9104 22.9374ZM64.205 18.7233C64.1286 18.7343 64.0631 18.7561 64.0194 18.767L62.7093 22.9811H63.4845C63.55 22.7737 63.6155 22.5553 63.681 22.3261C63.7465 22.0968 63.8229 21.8675 63.8884 21.6383C63.9539 21.409 64.0303 21.1798 64.0958 20.9505C64.1722 20.7212 64.2378 20.5029 64.3033 20.2954L64.5762 22.075H65.2531L66.454 20.2299L65.9518 22.9702H66.7378L67.502 18.7561C67.4693 18.7343 67.4147 18.7233 67.3492 18.7124C67.2728 18.7015 67.1964 18.7015 67.1199 18.7015C67.0108 18.7015 66.9016 18.7343 66.8033 18.7888C66.7051 18.8434 66.6177 18.9417 66.5304 19.0836L65.133 21.2671L64.8382 19.0727C64.8273 18.9635 64.7945 18.8762 64.74 18.8107C64.6854 18.7343 64.5871 18.7015 64.4561 18.7015C64.3578 18.7015 64.2814 18.7124 64.205 18.7233ZM60.1328 22.3042L60.4167 21.1361H61.6285L61.8032 20.4592H60.5914L60.8534 19.4111H61.9342C62.0434 19.4111 62.1416 19.4002 62.218 19.3784C62.2945 19.3566 62.36 19.3129 62.4146 19.2692C62.4691 19.2146 62.5019 19.1491 62.5346 19.0618C62.5674 18.9744 62.5892 18.8653 62.6002 18.7452H60.1983L59.1393 23.003H61.6613C61.6722 22.9811 61.694 22.9374 61.7049 22.8938C61.7158 22.8392 61.7268 22.7955 61.7268 22.7409C61.7377 22.6099 61.7049 22.5008 61.6394 22.4352C61.563 22.3697 61.432 22.3261 61.2464 22.3261H60.1328V22.3042ZM57.3598 20.3064C57.2288 20.4155 57.065 20.481 56.8795 20.481H56.4428L56.7375 19.3238C56.7594 19.3238 56.8139 19.3129 56.8904 19.3129C56.9668 19.3129 57.0323 19.3129 57.0869 19.3129C57.2616 19.3129 57.3926 19.3566 57.4799 19.433C57.5672 19.5203 57.6 19.6295 57.5891 19.7823C57.5672 20.0225 57.4908 20.1972 57.3598 20.3064ZM55.9842 22.3479L56.2899 21.0924H56.7594C56.9559 21.0924 57.0978 21.1361 57.1851 21.2343C57.2725 21.3326 57.3052 21.4636 57.2943 21.6492C57.2725 21.8894 57.1851 22.0641 57.0214 22.1841C56.8576 22.3042 56.6174 22.3588 56.2899 22.3588H55.9842V22.3479ZM56.1917 22.9811C56.4537 22.9811 56.7048 22.9593 56.934 22.9156C57.1633 22.8719 57.3598 22.7955 57.5345 22.6973C57.7092 22.5881 57.8511 22.4571 57.9494 22.2824C58.0585 22.1077 58.124 21.9003 58.1459 21.6492C58.1677 21.4199 58.124 21.2343 58.0258 21.0924C57.9275 20.9396 57.7965 20.8304 57.6328 20.754C57.8948 20.6339 58.0804 20.481 58.1895 20.3064C58.3096 20.1208 58.3751 19.9352 58.386 19.7277C58.397 19.5967 58.386 19.4657 58.3533 19.3456C58.3205 19.2255 58.255 19.1055 58.1568 19.0181C58.0585 18.9199 57.9275 18.8434 57.7528 18.7888C57.5891 18.7343 57.3707 18.7015 57.1196 18.7015C56.945 18.7015 56.7703 18.7124 56.6065 18.7233C56.4428 18.7343 56.2572 18.7561 56.0497 18.7779L55.0017 23.003H56.1917V22.9811ZM51.9994 18.2102C52.0431 18.2757 52.0867 18.3194 52.1304 18.3412C52.185 18.3631 52.2287 18.374 52.2942 18.374C52.3487 18.374 52.4033 18.3631 52.4579 18.3522C52.5125 18.3303 52.5671 18.3194 52.6217 18.2866L52.316 17.6098C52.2832 17.5443 52.2396 17.4897 52.1959 17.4569C52.1413 17.4242 52.0649 17.4023 51.9666 17.4023C51.8684 17.4023 51.792 17.4133 51.7155 17.446C51.65 17.4788 51.5845 17.5224 51.519 17.5879L50.8312 18.2648C50.864 18.2976 50.9077 18.3194 50.9622 18.3412C51.0168 18.3631 51.0714 18.374 51.126 18.374C51.1806 18.374 51.2352 18.3631 51.3007 18.3522C51.3553 18.3303 51.4099 18.3085 51.4644 18.2539L51.8356 17.9264L51.9994 18.2102ZM50.3945 22.3042L50.6784 21.1361H51.8902L52.0649 20.4592H50.8531L51.1151 19.4111H52.1959C52.3051 19.4111 52.4033 19.4002 52.4798 19.3784C52.5562 19.3566 52.6217 19.3129 52.6763 19.2692C52.7309 19.2146 52.7636 19.1491 52.7964 19.0618C52.8291 18.9744 52.8509 18.8653 52.8619 18.7452H50.46L49.4011 23.003H51.9121C51.923 22.9811 51.9448 22.9374 51.9557 22.8938C51.9666 22.8392 51.9776 22.7955 51.9776 22.7409C51.9885 22.6099 51.9557 22.5008 51.8902 22.4352C51.8138 22.3697 51.6828 22.3261 51.4972 22.3261H50.3945V22.3042ZM47.8835 22.0204C47.8071 22.0859 47.7198 22.1514 47.6215 22.206C47.5233 22.2606 47.425 22.3042 47.3268 22.337C47.2176 22.3697 47.1084 22.3807 46.9883 22.3807C46.8682 22.3807 46.7591 22.3588 46.6717 22.3042C46.5844 22.2497 46.508 22.1841 46.4534 22.0968C46.3988 22.0095 46.3551 21.9112 46.3333 21.7911C46.3114 21.671 46.3005 21.54 46.3114 21.409C46.3442 21.0706 46.3988 20.7758 46.4861 20.5247C46.5735 20.2736 46.6717 20.0553 46.8027 19.8806C46.9228 19.7059 47.0647 19.5749 47.2176 19.4876C47.3704 19.4002 47.5342 19.3566 47.6979 19.3566C47.9163 19.3566 48.0801 19.4111 48.1892 19.5094C48.2984 19.6077 48.3857 19.7496 48.4403 19.9243C48.5932 19.8915 48.7023 19.8369 48.7897 19.7496C48.877 19.6622 48.9207 19.564 48.9316 19.4439C48.9316 19.4002 48.9316 19.3456 48.9316 19.302C48.9207 19.2583 48.9098 19.2037 48.8879 19.16C48.8115 19.029 48.6914 18.9089 48.5168 18.7998C48.3421 18.7015 48.1237 18.6469 47.8508 18.6469C47.4796 18.6469 47.1521 18.7233 46.8682 18.8871C46.5844 19.0509 46.3442 19.2583 46.1477 19.5203C45.9512 19.7714 45.7983 20.0662 45.6782 20.3828C45.5691 20.6994 45.4926 21.016 45.4708 21.3217C45.449 21.5837 45.4599 21.813 45.5036 22.0313C45.5472 22.2497 45.6237 22.4352 45.7328 22.5881C45.842 22.7409 45.9948 22.8719 46.1804 22.9593C46.366 23.0466 46.5844 23.0903 46.8573 23.0903C47.0757 23.0903 47.2831 23.0575 47.4796 23.003C47.6652 22.9484 47.829 22.8719 47.96 22.7955C48.0801 22.7191 48.1783 22.6427 48.2547 22.5663C48.3312 22.4789 48.3639 22.3807 48.3748 22.2606C48.3857 22.1841 48.3639 22.1186 48.3202 22.0422C48.2766 21.9658 48.2111 21.9003 48.1237 21.8239C48.0364 21.8894 47.96 21.9549 47.8835 22.0204ZM41.7262 22.1296C41.6279 21.9658 41.5951 21.7475 41.617 21.4854C41.6497 21.147 41.7043 20.8522 41.7807 20.5902C41.8681 20.3282 41.9663 20.0989 42.0864 19.9243C42.2065 19.7387 42.3484 19.5967 42.5013 19.4985C42.6541 19.4002 42.807 19.3566 42.9707 19.3566C43.2 19.3566 43.3638 19.4439 43.462 19.6077C43.5603 19.7823 43.593 19.9898 43.5712 20.2518C43.5384 20.5793 43.4838 20.8741 43.3965 21.1361C43.3092 21.3981 43.2 21.6274 43.0799 21.802C42.9598 21.9876 42.8179 22.1296 42.676 22.2278C42.534 22.3261 42.3812 22.3807 42.2393 22.3807C41.9882 22.3807 41.8244 22.2933 41.7262 22.1296ZM42.1628 18.8871C41.879 19.0509 41.6388 19.2692 41.4423 19.5312C41.2458 19.7932 41.0929 20.088 40.9729 20.4155C40.8637 20.7431 40.7873 21.0706 40.7654 21.3872C40.7436 21.6164 40.7545 21.8239 40.7873 22.0313C40.82 22.2387 40.8964 22.4134 41.0056 22.5663C41.1148 22.7191 41.2567 22.8501 41.4314 22.9374C41.6061 23.0357 41.8353 23.0794 42.1083 23.0794C42.4685 23.0794 42.7961 22.992 43.069 22.8283C43.3419 22.6645 43.5821 22.4462 43.7786 22.1841C43.9751 21.9221 44.128 21.6274 44.2371 21.2998C44.3463 20.9723 44.4227 20.6448 44.4446 20.3173C44.4664 20.088 44.4555 19.8806 44.4227 19.6732C44.39 19.4657 44.3136 19.291 44.2153 19.1382C44.1171 18.9854 43.9751 18.8653 43.8005 18.767C43.6258 18.6688 43.4074 18.6251 43.1454 18.6251C42.7633 18.6469 42.4467 18.7233 42.1628 18.8871ZM40.5143 18.767C40.4379 18.7452 40.3615 18.7233 40.296 18.7124C40.2305 18.7015 40.165 18.7015 40.1104 18.7015C39.9575 18.7015 39.8265 18.7343 39.7174 18.8107C39.6191 18.8871 39.5208 18.9963 39.4444 19.1491L37.9924 21.933L37.8942 19.16C37.8832 19.0072 37.8505 18.8871 37.785 18.8107C37.7195 18.7343 37.6103 18.6906 37.4465 18.6906C37.3483 18.6906 37.261 18.7015 37.1955 18.7124C37.119 18.7233 37.0644 18.7452 37.0208 18.7561L37.2719 22.9702H38.1998L40.5143 18.767ZM33.1779 22.9374C33.287 22.8392 33.3525 22.6973 33.3635 22.5008C33.3744 22.4025 33.3416 22.3042 33.2761 22.2169C33.2106 22.1296 33.1124 22.0859 32.9813 22.0859C32.8394 22.0859 32.7193 22.1296 32.6102 22.2278C32.501 22.3261 32.4355 22.468 32.4246 22.6645C32.4136 22.7628 32.4464 22.861 32.5119 22.9484C32.5774 23.0357 32.6757 23.0794 32.8067 23.0794C32.9377 23.0794 33.0687 23.0248 33.1779 22.9374ZM31.1691 18.2102C31.2127 18.2757 31.2564 18.3194 31.3001 18.3412C31.3547 18.3631 31.3983 18.374 31.4638 18.374C31.5184 18.374 31.573 18.3631 31.6276 18.3522C31.6822 18.3303 31.7368 18.3194 31.7914 18.2866L31.4857 17.6098C31.4529 17.5443 31.4092 17.4897 31.3656 17.4569C31.311 17.4242 31.2346 17.4023 31.1363 17.4023C31.0381 17.4023 30.9616 17.4133 30.8852 17.446C30.8197 17.4788 30.7542 17.5224 30.6887 17.5879L30.0009 18.2648C30.0337 18.2976 30.0773 18.3194 30.1319 18.3412C30.1865 18.3631 30.2411 18.374 30.2957 18.374C30.3503 18.374 30.4049 18.3631 30.4704 18.3522C30.5249 18.3303 30.5795 18.3085 30.6341 18.2539L31.0053 17.9264L31.1691 18.2102ZM29.5751 22.3042L29.859 21.1361H31.0708L31.2455 20.4592H30.0337L30.2957 19.4111H31.3765C31.4857 19.4111 31.5839 19.4002 31.6603 19.3784C31.7368 19.3566 31.8023 19.3129 31.8569 19.2692C31.9114 19.2146 31.9442 19.1491 31.9769 19.0618C32.0097 18.9744 32.0315 18.8653 32.0425 18.7452H29.6406L28.5816 23.003H31.1036C31.1145 22.9811 31.1363 22.9374 31.1472 22.8938C31.1581 22.8392 31.1691 22.7955 31.1691 22.7409C31.18 22.6099 31.1472 22.5008 31.0817 22.4352C31.0053 22.3697 30.8743 22.3261 30.6887 22.3261H29.5751V22.3042ZM26.9986 22.0204C26.9222 22.0859 26.8349 22.1514 26.7366 22.206C26.6384 22.2606 26.5401 22.3042 26.4418 22.337C26.3327 22.3697 26.2235 22.3807 26.1034 22.3807C25.9833 22.3807 25.8741 22.3588 25.7868 22.3042C25.6995 22.2497 25.623 22.1841 25.5685 22.0968C25.5139 22.0095 25.4702 21.9112 25.4484 21.7911C25.4265 21.671 25.4156 21.54 25.4265 21.409C25.4593 21.0706 25.5139 20.7758 25.6012 20.5247C25.6886 20.2736 25.7868 20.0553 25.9178 19.8806C26.0488 19.7059 26.1798 19.5749 26.3327 19.4876C26.4855 19.4002 26.6493 19.3566 26.813 19.3566C27.0314 19.3566 27.1951 19.4111 27.3043 19.5094C27.4135 19.6077 27.5008 19.7496 27.5554 19.9243C27.6973 19.8915 27.8174 19.8369 27.9048 19.7496C27.9921 19.6622 28.0358 19.564 28.0467 19.4439C28.0467 19.4002 28.0467 19.3456 28.0467 19.302C28.0358 19.2583 28.0249 19.2037 28.003 19.16C27.9266 19.029 27.8065 18.9089 27.6318 18.7998C27.4572 18.7015 27.2388 18.6469 26.9659 18.6469C26.5947 18.6469 26.2672 18.7233 25.9833 18.8871C25.6995 19.0509 25.4593 19.2583 25.2628 19.5203C25.0663 19.7714 24.9134 20.0662 24.7933 20.3828C24.6842 20.6994 24.6077 21.016 24.5859 21.3217C24.5641 21.5837 24.575 21.813 24.6186 22.0313C24.6623 22.2497 24.7387 22.4352 24.8479 22.5881C24.9571 22.7409 25.1099 22.8719 25.2955 22.9593C25.4811 23.0466 25.6995 23.0903 25.9724 23.0903C26.1907 23.0903 26.3982 23.0575 26.5947 23.003C26.7912 22.9484 26.944 22.8719 27.0751 22.7955C27.1951 22.7191 27.2934 22.6427 27.3698 22.5663C27.4462 22.4789 27.479 22.3807 27.4899 22.2606C27.5008 22.1841 27.479 22.1186 27.4353 22.0422C27.3917 21.9658 27.3262 21.9003 27.2388 21.8239C27.1515 21.8894 27.0751 21.9549 26.9986 22.0204ZM20.7757 22.1296C20.6775 21.9658 20.6447 21.7475 20.6666 21.4854C20.6993 21.147 20.7539 20.8522 20.8303 20.5902C20.9177 20.3282 21.0159 20.0989 21.136 19.9243C21.2561 19.7387 21.398 19.5967 21.5509 19.4985C21.7037 19.4002 21.8566 19.3566 22.0203 19.3566C22.2496 19.3566 22.4133 19.4439 22.5116 19.6077C22.6099 19.7823 22.6426 19.9898 22.6208 20.2518C22.588 20.5793 22.5334 20.8741 22.4461 21.1361C22.3588 21.3981 22.2496 21.6274 22.1295 21.802C22.0094 21.9876 21.8675 22.1296 21.7255 22.2278C21.5836 22.3261 21.4308 22.3807 21.2889 22.3807C21.0487 22.3807 20.874 22.2933 20.7757 22.1296ZM21.2124 18.8871C20.9286 19.0509 20.6884 19.2692 20.4919 19.5312C20.2954 19.7932 20.1425 20.088 20.0224 20.4155C19.9133 20.7431 19.8368 21.0706 19.815 21.3872C19.7932 21.6164 19.8041 21.8239 19.8368 22.0313C19.8696 22.2387 19.946 22.4134 20.0552 22.5663C20.1644 22.7191 20.3063 22.8501 20.481 22.9374C20.6556 23.0357 20.8849 23.0794 21.1578 23.0794C21.5181 23.0794 21.8456 22.992 22.1186 22.8283C22.3915 22.6645 22.6317 22.4462 22.8282 22.1841C23.0247 21.9221 23.1776 21.6274 23.2867 21.2998C23.3959 20.9723 23.4723 20.6448 23.4942 20.3173C23.516 20.088 23.5051 19.8806 23.4723 19.6732C23.4396 19.4657 23.3632 19.291 23.2649 19.1382C23.1666 18.9854 23.0247 18.8653 22.85 18.767C22.6754 18.6688 22.457 18.6251 22.195 18.6251C21.8129 18.6469 21.4963 18.7233 21.2124 18.8871ZM19.5093 18.767C19.4329 18.7452 19.3565 18.7233 19.291 18.7124C19.2255 18.7015 19.16 18.7015 19.1054 18.7015C18.9525 18.7015 18.8215 18.7343 18.7124 18.8107C18.6141 18.8871 18.5158 18.9963 18.4394 19.1491L16.9874 21.933L16.8892 19.16C16.8782 19.0072 16.8455 18.8871 16.78 18.8107C16.7145 18.7343 16.6053 18.6906 16.4415 18.6906C16.3433 18.6906 16.256 18.7015 16.1904 18.7124C16.114 18.7233 16.0594 18.7452 16.0158 18.7561L16.2669 22.9702H17.1948L19.5093 18.767ZM9.32343 18.7233C9.247 18.7343 9.1815 18.7561 9.13783 18.767L7.82775 22.9811H8.60288C8.66839 22.7737 8.73389 22.5553 8.79939 22.3261C8.8649 22.0968 8.94132 21.8675 9.00682 21.6383C9.07233 21.409 9.14875 21.1798 9.21425 20.9505C9.29067 20.7212 9.35618 20.5029 9.42168 20.2954L9.69462 22.075H10.3715L11.5724 20.2299L11.0702 22.9702H11.8563L12.6205 18.7561C12.5877 18.7343 12.5331 18.7233 12.4676 18.7124C12.3912 18.7015 12.3148 18.7015 12.2384 18.7015C12.1292 18.7015 12.02 18.7343 11.9218 18.7888C11.8235 18.8434 11.7362 18.9417 11.6488 19.0836L10.2514 21.2671L9.95663 19.0727C9.94572 18.9635 9.91296 18.8762 9.85838 18.8107C9.80379 18.7343 9.70553 18.7015 9.57453 18.7015C9.48719 18.7015 9.39985 18.7124 9.32343 18.7233ZM5.18575 22.3042L5.4696 21.1361H6.68142L6.8561 20.4592H5.64428L5.90629 19.4111H6.98711C7.09628 19.4111 7.19454 19.4002 7.27096 19.3784C7.34738 19.3566 7.41289 19.3129 7.46748 19.2692C7.52206 19.2146 7.55481 19.1491 7.58757 19.0618C7.62032 18.9744 7.64215 18.8653 7.65307 18.7452H5.25125L4.19227 23.003H6.71418C6.72509 22.9811 6.74693 22.9374 6.75785 22.8938C6.76876 22.8392 6.77968 22.7955 6.77968 22.7409C6.7906 22.6099 6.75785 22.5008 6.69234 22.4352C6.61592 22.3697 6.48491 22.3261 6.29932 22.3261H5.18575V22.3042ZM2.35815 20.3064C2.22714 20.4155 2.06338 20.481 1.87779 20.481H1.44109L1.73586 19.3238C1.7577 19.3238 1.81228 19.3129 1.8887 19.3129C1.96513 19.3129 2.03063 19.3129 2.08522 19.3129C2.25989 19.3129 2.3909 19.3566 2.47824 19.433C2.56558 19.5203 2.59833 19.6295 2.58741 19.7823C2.56558 20.0225 2.48916 20.1972 2.35815 20.3064ZM0.982562 22.3479L1.28825 21.0924H1.75769C1.95421 21.0924 2.09613 21.1361 2.18347 21.2343C2.27081 21.3326 2.30356 21.4636 2.29265 21.6492C2.27081 21.8894 2.18347 22.0641 2.01971 22.1841C1.85595 22.3042 1.61577 22.3588 1.28825 22.3588H0.982562V22.3479ZM1.18999 22.9811C1.45201 22.9811 1.70311 22.9593 1.93237 22.9156C2.16164 22.8719 2.35815 22.7955 2.53283 22.6973C2.70751 22.5881 2.84943 22.4571 2.94769 22.2824C3.05686 22.1077 3.12237 21.9003 3.1442 21.6492C3.16604 21.4199 3.12236 21.2343 3.02411 21.0924C2.92585 20.9396 2.79484 20.8304 2.63108 20.754C2.8931 20.6339 3.0787 20.481 3.18787 20.3064C3.30796 20.1208 3.37346 19.9352 3.38438 19.7277C3.3953 19.5967 3.38438 19.4657 3.35163 19.3456C3.31888 19.2255 3.25337 19.1055 3.15512 19.0181C3.05686 18.9199 2.92585 18.8434 2.75117 18.7888C2.58741 18.7343 2.36907 18.7015 2.11797 18.7015C1.94329 18.7015 1.76861 18.7124 1.60485 18.7233C1.44109 18.7343 1.2555 18.7561 1.04807 18.7779L0 23.003H1.18999V22.9811Z" fill="white"/>
</svg>
